<?xml version="1.0" encoding="UTF-8" standalone="no"?>
<!DOCTYPE svg PUBLIC "-//W3C//DTD SVG 1.1//EN"
 "http://www.w3.org/Graphics/SVG/1.1/DTD/svg11.dtd">
<!-- Generated by graphviz version 2.43.0 (0)
 -->
<!-- Title: pc Pages: 1 -->
<svg width="448pt" height="175pt"
 viewBox="0.00 0.00 447.75 175.00" xmlns="http://www.w3.org/2000/svg" xmlns:xlink="http://www.w3.org/1999/xlink">
<g id="graph0" class="graph" transform="scale(1 1) rotate(0) translate(4 171)">
<title>pc</title>
<polygon fill="white" stroke="transparent" points="-4,4 -4,-171 443.75,-171 443.75,4 -4,4"/>
<text text-anchor="middle" x="219.87" y="-7.8" font-family="Times,serif" font-size="14.00">pc</text>
<!-- n1 -->
<g id="node1" class="node">
<title>n1</title>
<polygon fill="none" stroke="black" points="76.95,-87.54 76.95,-102.46 61.13,-113 38.76,-113 22.95,-102.46 22.95,-87.54 38.76,-77 61.13,-77 76.95,-87.54"/>
<text text-anchor="middle" x="49.95" y="-91.3" font-family="Times,serif" font-size="14.00">clk</text>
</g>
<!-- c9 -->
<g id="node5" class="node">
<title>c9</title>
<polygon fill="none" stroke="black" points="135.9,-60.5 135.9,-129.5 272.9,-129.5 272.9,-60.5 135.9,-60.5"/>
<text text-anchor="middle" x="163.9" y="-114.3" font-family="Times,serif" font-size="14.00">ARST</text>
<polyline fill="none" stroke="black" points="135.9,-106.5 191.9,-106.5 "/>
<text text-anchor="middle" x="163.9" y="-91.3" font-family="Times,serif" font-size="14.00">CLK</text>
<polyline fill="none" stroke="black" points="135.9,-83.5 191.9,-83.5 "/>
<text text-anchor="middle" x="163.9" y="-68.3" font-family="Times,serif" font-size="14.00">D</text>
<polyline fill="none" stroke="black" points="191.9,-60.5 191.9,-129.5 "/>
<text text-anchor="middle" x="218.4" y="-98.8" font-family="Times,serif" font-size="14.00">$2</text>
<text text-anchor="middle" x="218.4" y="-83.8" font-family="Times,serif" font-size="14.00">$adff</text>
<polyline fill="none" stroke="black" points="244.9,-60.5 244.9,-129.5 "/>
<text text-anchor="middle" x="258.9" y="-91.3" font-family="Times,serif" font-size="14.00">Q</text>
</g>
<!-- n1&#45;&gt;c9 -->
<g id="edge1" class="edge">
<title>n1:e&#45;&gt;c9:w</title>
<path fill="none" stroke="black" d="M77.95,-95C99.88,-95 107.8,-95 125.58,-95"/>
<polygon fill="black" stroke="black" points="125.9,-98.5 135.9,-95 125.9,-91.5 125.9,-98.5"/>
</g>
<!-- n2 -->
<g id="node2" class="node">
<title>n2</title>
<polygon fill="none" stroke="black" points="99.84,-33.54 99.84,-48.46 70.62,-59 29.28,-59 0.05,-48.46 0.05,-33.54 29.28,-23 70.62,-23 99.84,-33.54"/>
<text text-anchor="middle" x="49.95" y="-37.3" font-family="Times,serif" font-size="14.00">next_pc</text>
</g>
<!-- n2&#45;&gt;c9 -->
<g id="edge2" class="edge">
<title>n2:e&#45;&gt;c9:w</title>
<path fill="none" stroke="black" stroke-width="3" d="M99.9,-41C116.89,-41 116.17,-61.07 126.25,-68.91"/>
<polygon fill="black" stroke="black" stroke-width="3" points="125.31,-72.29 135.9,-72 127.44,-65.62 125.31,-72.29"/>
</g>
<!-- n3 -->
<g id="node3" class="node">
<title>n3</title>
<polygon fill="none" stroke="black" points="439.67,-87.54 439.67,-102.46 401.39,-113 347.25,-113 308.97,-102.46 308.97,-87.54 347.25,-77 401.39,-77 439.67,-87.54"/>
<text text-anchor="middle" x="374.32" y="-91.3" font-family="Times,serif" font-size="14.00">pc_current</text>
</g>
<!-- n4 -->
<g id="node4" class="node">
<title>n4</title>
<polygon fill="none" stroke="black" points="76.95,-141.54 76.95,-156.46 61.13,-167 38.76,-167 22.95,-156.46 22.95,-141.54 38.76,-131 61.13,-131 76.95,-141.54"/>
<text text-anchor="middle" x="49.95" y="-145.3" font-family="Times,serif" font-size="14.00">rst</text>
</g>
<!-- n4&#45;&gt;c9 -->
<g id="edge4" class="edge">
<title>n4:e&#45;&gt;c9:w</title>
<path fill="none" stroke="black" d="M77.95,-149C103.39,-149 106.32,-125.48 125.95,-119.41"/>
<polygon fill="black" stroke="black" points="126.49,-122.87 135.9,-118 125.5,-115.94 126.49,-122.87"/>
</g>
<!-- c9&#45;&gt;n3 -->
<g id="edge3" class="edge">
<title>c9:e&#45;&gt;n3:w</title>
<path fill="none" stroke="black" stroke-width="3" d="M272.9,-95C284.9,-95 290.15,-95 298.77,-95"/>
<polygon fill="black" stroke="black" stroke-width="3" points="298.9,-98.5 308.9,-95 298.9,-91.5 298.9,-98.5"/>
</g>
</g>
</svg>
