<?xml version="1.0" encoding="UTF-8" standalone="no"?>
<!DOCTYPE svg PUBLIC "-//W3C//DTD SVG 1.1//EN"
 "http://www.w3.org/Graphics/SVG/1.1/DTD/svg11.dtd">
<!-- Generated by graphviz version 2.43.0 (0)
 -->
<!-- Title: rv32i_soc Pages: 1 -->
<svg width="1244pt" height="445pt"
 viewBox="0.00 0.00 1244.19 445.00" xmlns="http://www.w3.org/2000/svg" xmlns:xlink="http://www.w3.org/1999/xlink">
<g id="graph0" class="graph" transform="scale(1 1) rotate(0) translate(4 441)">
<title>rv32i_soc</title>
<polygon fill="white" stroke="transparent" points="-4,4 -4,-441 1240.19,-441 1240.19,4 -4,4"/>
<text text-anchor="middle" x="618.09" y="-7.8" font-family="Times,serif" font-size="14.00">rv32i_soc</text>
<!-- n1 -->
<g id="node1" class="node">
<title>n1</title>
<polygon fill="none" stroke="black" points="345.8,-284.54 345.8,-299.46 329.98,-310 307.61,-310 291.8,-299.46 291.8,-284.54 307.61,-274 329.98,-274 345.8,-284.54"/>
<text text-anchor="middle" x="318.8" y="-288.3" font-family="Times,serif" font-size="14.00">clk</text>
</g>
<!-- c17 -->
<g id="node14" class="node">
<title>c17</title>
<polygon fill="none" stroke="black" points="403.51,-138 403.51,-322 1104.51,-322 1104.51,-138 403.51,-138"/>
<text text-anchor="middle" x="437.51" y="-287.8" font-family="Times,serif" font-size="14.00">clk</text>
<polyline fill="none" stroke="black" points="403.51,-261 471.51,-261 "/>
<text text-anchor="middle" x="437.51" y="-226.8" font-family="Times,serif" font-size="14.00">reset</text>
<polyline fill="none" stroke="black" points="403.51,-200 471.51,-200 "/>
<text text-anchor="middle" x="437.51" y="-165.3" font-family="Times,serif" font-size="14.00">uart_rx</text>
<polyline fill="none" stroke="black" points="471.51,-138 471.51,-322 "/>
<text text-anchor="middle" x="729.51" y="-233.8" font-family="Times,serif" font-size="14.00">core</text>
<text text-anchor="middle" x="729.51" y="-218.8" font-family="Times,serif" font-size="14.00">$paramod$15838e3384b80edaefe80a7ae6bceed553479c1b╲riscv_top</text>
<polyline fill="none" stroke="black" points="987.51,-138 987.51,-322 "/>
<text text-anchor="middle" x="1046.01" y="-306.8" font-family="Times,serif" font-size="14.00">alu_result_out</text>
<polyline fill="none" stroke="black" points="987.51,-299 1104.51,-299 "/>
<text text-anchor="middle" x="1046.01" y="-283.8" font-family="Times,serif" font-size="14.00">instr_out</text>
<polyline fill="none" stroke="black" points="987.51,-276 1104.51,-276 "/>
<text text-anchor="middle" x="1046.01" y="-260.8" font-family="Times,serif" font-size="14.00">led_out</text>
<polyline fill="none" stroke="black" points="987.51,-253 1104.51,-253 "/>
<text text-anchor="middle" x="1046.01" y="-237.8" font-family="Times,serif" font-size="14.00">pc_out</text>
<polyline fill="none" stroke="black" points="987.51,-230 1104.51,-230 "/>
<text text-anchor="middle" x="1046.01" y="-214.8" font-family="Times,serif" font-size="14.00">reg_rs1_out</text>
<polyline fill="none" stroke="black" points="987.51,-207 1104.51,-207 "/>
<text text-anchor="middle" x="1046.01" y="-191.8" font-family="Times,serif" font-size="14.00">reg_rs2_out</text>
<polyline fill="none" stroke="black" points="987.51,-184 1104.51,-184 "/>
<text text-anchor="middle" x="1046.01" y="-168.8" font-family="Times,serif" font-size="14.00">uart_tx</text>
<polyline fill="none" stroke="black" points="987.51,-161 1104.51,-161 "/>
<text text-anchor="middle" x="1046.01" y="-145.8" font-family="Times,serif" font-size="14.00">wb_data_out</text>
</g>
<!-- n1&#45;&gt;c17 -->
<g id="edge1" class="edge">
<title>n1:e&#45;&gt;c17:w</title>
<path fill="none" stroke="black" d="M346.8,-292C368.26,-292 376.02,-292 393.41,-292"/>
<polygon fill="black" stroke="black" points="393.51,-295.5 403.51,-292 393.51,-288.5 393.51,-295.5"/>
</g>
<!-- n2 -->
<g id="node2" class="node">
<title>n2</title>
<polygon fill="none" stroke="black" points="1236.03,-303.54 1236.03,-318.46 1208.1,-329 1168.6,-329 1140.67,-318.46 1140.67,-303.54 1168.6,-293 1208.1,-293 1236.03,-303.54"/>
<text text-anchor="middle" x="1188.35" y="-307.3" font-family="Times,serif" font-size="14.00">led_soc</text>
</g>
<!-- n3 -->
<g id="node3" class="node">
<title>n3</title>
<polygon fill="none" stroke="black" points="318.8,-249 269.87,-231 318.8,-213 367.73,-231 318.8,-249"/>
<text text-anchor="middle" x="318.8" y="-227.3" font-family="Times,serif" font-size="14.00">reset</text>
</g>
<!-- n3&#45;&gt;c17 -->
<g id="edge4" class="edge">
<title>n3:e&#45;&gt;c17:w</title>
<path fill="none" stroke="black" d="M367.51,-231C379.51,-231 384.76,-231 393.39,-231"/>
<polygon fill="black" stroke="black" points="393.51,-234.5 403.51,-231 393.51,-227.5 393.51,-234.5"/>
</g>
<!-- n4 -->
<g id="node4" class="node">
<title>n4</title>
<polygon fill="none" stroke="black" points="97.12,-223.54 97.12,-238.46 68.66,-249 28.42,-249 -0.04,-238.46 -0.04,-223.54 28.42,-213 68.66,-213 97.12,-223.54"/>
<text text-anchor="middle" x="48.54" y="-227.3" font-family="Times,serif" font-size="14.00">reset_n</text>
</g>
<!-- c9 -->
<g id="node7" class="node">
<title>c9</title>
<polygon fill="none" stroke="black" points="133.08,-212 133.08,-250 234.08,-250 234.08,-212 133.08,-212"/>
<text text-anchor="middle" x="146.08" y="-227.3" font-family="Times,serif" font-size="14.00">A</text>
<polyline fill="none" stroke="black" points="159.08,-212 159.08,-250 "/>
<text text-anchor="middle" x="183.58" y="-234.8" font-family="Times,serif" font-size="14.00">$1</text>
<text text-anchor="middle" x="183.58" y="-219.8" font-family="Times,serif" font-size="14.00">$not</text>
<polyline fill="none" stroke="black" points="208.08,-212 208.08,-250 "/>
<text text-anchor="middle" x="221.08" y="-227.3" font-family="Times,serif" font-size="14.00">Y</text>
</g>
<!-- n4&#45;&gt;c9 -->
<g id="edge5" class="edge">
<title>n4:e&#45;&gt;c9:w</title>
<path fill="none" stroke="black" d="M97.08,-231C109.08,-231 114.33,-231 122.96,-231"/>
<polygon fill="black" stroke="black" points="123.08,-234.5 133.08,-231 123.08,-227.5 123.08,-234.5"/>
</g>
<!-- n5 -->
<g id="node5" class="node">
<title>n5</title>
<polygon fill="none" stroke="black" points="366.47,-161.54 366.47,-176.46 338.55,-187 299.05,-187 271.12,-176.46 271.12,-161.54 299.05,-151 338.55,-151 366.47,-161.54"/>
<text text-anchor="middle" x="318.8" y="-165.3" font-family="Times,serif" font-size="14.00">uart_rx</text>
</g>
<!-- n5&#45;&gt;c17 -->
<g id="edge6" class="edge">
<title>n5:e&#45;&gt;c17:w</title>
<path fill="none" stroke="black" d="M367.51,-169C379.51,-169 384.76,-169 393.39,-169"/>
<polygon fill="black" stroke="black" points="393.51,-172.5 403.51,-169 393.51,-165.5 393.51,-172.5"/>
</g>
<!-- n6 -->
<g id="node6" class="node">
<title>n6</title>
<polygon fill="none" stroke="black" points="1236.03,-87.54 1236.03,-102.46 1208.1,-113 1168.6,-113 1140.67,-102.46 1140.67,-87.54 1168.6,-77 1208.1,-77 1236.03,-87.54"/>
<text text-anchor="middle" x="1188.35" y="-91.3" font-family="Times,serif" font-size="14.00">uart_tx</text>
</g>
<!-- c9&#45;&gt;n3 -->
<g id="edge3" class="edge">
<title>c9:e&#45;&gt;n3:w</title>
<path fill="none" stroke="black" d="M234.08,-231C246.08,-231 251.33,-231 259.96,-231"/>
<polygon fill="black" stroke="black" points="260.08,-234.5 270.08,-231 260.08,-227.5 260.08,-234.5"/>
</g>
<!-- v0 -->
<g id="node8" class="node">
<title>v0</title>
<ellipse fill="none" stroke="black" cx="1188.35" cy="-419" rx="27" ry="18"/>
</g>
<!-- v1 -->
<g id="node9" class="node">
<title>v1</title>
<ellipse fill="none" stroke="black" cx="1188.35" cy="-365" rx="27" ry="18"/>
</g>
<!-- v2 -->
<g id="node10" class="node">
<title>v2</title>
<ellipse fill="none" stroke="black" cx="1188.35" cy="-257" rx="27" ry="18"/>
</g>
<!-- v3 -->
<g id="node11" class="node">
<title>v3</title>
<ellipse fill="none" stroke="black" cx="1188.35" cy="-203" rx="27" ry="18"/>
</g>
<!-- v4 -->
<g id="node12" class="node">
<title>v4</title>
<ellipse fill="none" stroke="black" cx="1188.35" cy="-149" rx="27" ry="18"/>
</g>
<!-- v5 -->
<g id="node13" class="node">
<title>v5</title>
<ellipse fill="none" stroke="black" cx="1188.35" cy="-41" rx="27" ry="18"/>
</g>
<!-- c17&#45;&gt;n2 -->
<g id="edge2" class="edge">
<title>c17:e&#45;&gt;n2:w</title>
<path fill="none" stroke="black" stroke-width="3" d="M1104.51,-265C1126.21,-265 1118.65,-297.14 1130.75,-307.69"/>
<polygon fill="black" stroke="black" stroke-width="3" points="1129.92,-311.11 1140.51,-311 1132.16,-304.48 1129.92,-311.11"/>
</g>
<!-- c17&#45;&gt;n6 -->
<g id="edge7" class="edge">
<title>c17:e&#45;&gt;n6:w</title>
<path fill="none" stroke="black" d="M1104.51,-172C1138.16,-172 1110.46,-110.92 1130.69,-97.56"/>
<polygon fill="black" stroke="black" points="1131.72,-100.91 1140.51,-95 1129.95,-94.14 1131.72,-100.91"/>
</g>
<!-- c17&#45;&gt;v0 -->
<g id="edge8" class="edge">
<title>c17:e&#45;&gt;v0:w</title>
<path fill="none" stroke="black" d="M1104.51,-311C1154.75,-311 1113.13,-404.35 1150.45,-417.47"/>
<polygon fill="black" stroke="black" points="1149.93,-420.93 1160.35,-419 1151,-414.02 1149.93,-420.93"/>
</g>
<!-- c17&#45;&gt;v1 -->
<g id="edge9" class="edge">
<title>c17:e&#45;&gt;v1:w</title>
<path fill="none" stroke="black" d="M1104.51,-288C1142.82,-288 1122.84,-351.24 1150.22,-363.1"/>
<polygon fill="black" stroke="black" points="1149.88,-366.59 1160.35,-365 1151.17,-359.71 1149.88,-366.59"/>
</g>
<!-- c17&#45;&gt;v2 -->
<g id="edge10" class="edge">
<title>c17:e&#45;&gt;v2:w</title>
<path fill="none" stroke="black" d="M1104.51,-242C1126.39,-242 1132.87,-252.88 1150.17,-256.11"/>
<polygon fill="black" stroke="black" points="1150.08,-259.61 1160.35,-257 1150.69,-252.64 1150.08,-259.61"/>
</g>
<!-- c17&#45;&gt;v3 -->
<g id="edge11" class="edge">
<title>c17:e&#45;&gt;v3:w</title>
<path fill="none" stroke="black" d="M1104.51,-218C1126.39,-218 1132.87,-207.12 1150.17,-203.89"/>
<polygon fill="black" stroke="black" points="1150.69,-207.36 1160.35,-203 1150.08,-200.39 1150.69,-207.36"/>
</g>
<!-- c17&#45;&gt;v4 -->
<g id="edge12" class="edge">
<title>c17:e&#45;&gt;v4:w</title>
<path fill="none" stroke="black" d="M1104.51,-195C1132.77,-195 1129.65,-159.47 1150.31,-150.86"/>
<polygon fill="black" stroke="black" points="1151.16,-154.26 1160.35,-149 1149.88,-147.38 1151.16,-154.26"/>
</g>
<!-- c17&#45;&gt;v5 -->
<g id="edge13" class="edge">
<title>c17:e&#45;&gt;v5:w</title>
<path fill="none" stroke="black" d="M1104.51,-149C1154.75,-149 1113.13,-55.65 1150.45,-42.53"/>
<polygon fill="black" stroke="black" points="1151,-45.98 1160.35,-41 1149.93,-39.07 1151,-45.98"/>
</g>
</g>
</svg>
