<?xml version="1.0" encoding="UTF-8" standalone="no"?>
<!DOCTYPE svg PUBLIC "-//W3C//DTD SVG 1.1//EN"
 "http://www.w3.org/Graphics/SVG/1.1/DTD/svg11.dtd">
<!-- Generated by graphviz version 2.43.0 (0)
 -->
<!-- Title: rv32i_versa5g_top Pages: 1 -->
<svg width="2488pt" height="282pt"
 viewBox="0.00 0.00 2487.84 281.86" xmlns="http://www.w3.org/2000/svg" xmlns:xlink="http://www.w3.org/1999/xlink">
<g id="graph0" class="graph" transform="scale(1 1) rotate(0) translate(4 277.86)">
<title>rv32i_versa5g_top</title>
<polygon fill="white" stroke="transparent" points="-4,4 -4,-277.86 2483.84,-277.86 2483.84,4 -4,4"/>
<text text-anchor="middle" x="1239.92" y="-7.8" font-family="Times,serif" font-size="14.00">rv32i_versa5g_top</text>
<!-- n2 -->
<g id="node1" class="node">
<title>n2</title>
<polygon fill="none" stroke="black" points="70.52,-228.04 70.52,-242.95 49.82,-253.5 20.53,-253.5 -0.18,-242.95 -0.18,-228.04 20.53,-217.5 49.82,-217.5 70.52,-228.04"/>
<text text-anchor="middle" x="35.17" y="-231.8" font-family="Times,serif" font-size="14.00">clkin</text>
</g>
<!-- c18 -->
<g id="node11" class="node">
<title>c18</title>
<polygon fill="none" stroke="black" points="106.35,-124 106.35,-193 243.35,-193 243.35,-124 106.35,-124"/>
<text text-anchor="middle" x="129.85" y="-177.8" font-family="Times,serif" font-size="14.00">CLK</text>
<polyline fill="none" stroke="black" points="106.35,-170 153.35,-170 "/>
<text text-anchor="middle" x="129.85" y="-154.8" font-family="Times,serif" font-size="14.00">D</text>
<polyline fill="none" stroke="black" points="106.35,-147 153.35,-147 "/>
<text text-anchor="middle" x="129.85" y="-131.8" font-family="Times,serif" font-size="14.00">EN</text>
<polyline fill="none" stroke="black" points="153.35,-124 153.35,-193 "/>
<text text-anchor="middle" x="184.35" y="-162.3" font-family="Times,serif" font-size="14.00">$9974</text>
<text text-anchor="middle" x="184.35" y="-147.3" font-family="Times,serif" font-size="14.00">$dffe</text>
<polyline fill="none" stroke="black" points="215.35,-124 215.35,-193 "/>
<text text-anchor="middle" x="229.35" y="-154.8" font-family="Times,serif" font-size="14.00">Q</text>
</g>
<!-- n2&#45;&gt;c18 -->
<g id="edge2" class="edge">
<title>n2:e&#45;&gt;c18:w</title>
<path fill="none" stroke="black" d="M70.35,-235.5C94.91,-235.5 82.83,-196.34 96.51,-184.71"/>
<polygon fill="black" stroke="black" points="97.93,-187.93 106.35,-181.5 95.76,-181.28 97.93,-187.93"/>
</g>
<!-- c24 -->
<g id="node14" class="node">
<title>c24</title>
<polygon fill="none" stroke="black" points="1327.78,-226.5 1327.78,-272.5 2069.78,-272.5 2069.78,-226.5 1327.78,-226.5"/>
<text text-anchor="middle" x="1357.28" y="-257.3" font-family="Times,serif" font-size="14.00">clk</text>
<polyline fill="none" stroke="black" points="1327.78,-249.5 1386.78,-249.5 "/>
<text text-anchor="middle" x="1357.28" y="-234.3" font-family="Times,serif" font-size="14.00">led_in</text>
<polyline fill="none" stroke="black" points="1386.78,-226.5 1386.78,-272.5 "/>
<text text-anchor="middle" x="1694.28" y="-253.3" font-family="Times,serif" font-size="14.00">blink</text>
<text text-anchor="middle" x="1694.28" y="-238.3" font-family="Times,serif" font-size="14.00">$paramod╲led_blink_overlay╲DIV_BIT=s32&#39;00000000000000000000000000011000</text>
<polyline fill="none" stroke="black" points="2001.78,-226.5 2001.78,-272.5 "/>
<text text-anchor="middle" x="2035.78" y="-245.8" font-family="Times,serif" font-size="14.00">led_out</text>
</g>
<!-- n2&#45;&gt;c24 -->
<g id="edge3" class="edge">
<title>n2:e&#45;&gt;c24:w</title>
<path fill="none" stroke="black" d="M70.35,-235.5C87.52,-235.5 89.62,-245.64 106.35,-249.5 232.49,-278.59 267.18,-273.5 396.64,-273.5 396.64,-273.5 396.64,-273.5 1021.27,-273.5 1154.14,-273.5 1189.66,-262.1 1317.59,-261.52"/>
<polygon fill="black" stroke="black" points="1317.79,-265.02 1327.78,-261.5 1317.77,-258.02 1317.79,-265.02"/>
</g>
<!-- c25 -->
<g id="node15" class="node">
<title>c25</title>
<polygon fill="none" stroke="black" points="909.77,-154 909.77,-223 1130.77,-223 1130.77,-154 909.77,-154"/>
<text text-anchor="middle" x="944.27" y="-207.8" font-family="Times,serif" font-size="14.00">clk</text>
<polyline fill="none" stroke="black" points="909.77,-200 978.77,-200 "/>
<text text-anchor="middle" x="944.27" y="-184.8" font-family="Times,serif" font-size="14.00">reset_n</text>
<polyline fill="none" stroke="black" points="909.77,-177 978.77,-177 "/>
<text text-anchor="middle" x="944.27" y="-161.8" font-family="Times,serif" font-size="14.00">uart_rx</text>
<polyline fill="none" stroke="black" points="978.77,-154 978.77,-223 "/>
<text text-anchor="middle" x="1020.77" y="-192.3" font-family="Times,serif" font-size="14.00">soc</text>
<text text-anchor="middle" x="1020.77" y="-177.3" font-family="Times,serif" font-size="14.00">rv32i_soc</text>
<polyline fill="none" stroke="black" points="1062.77,-154 1062.77,-223 "/>
<text text-anchor="middle" x="1096.77" y="-202.3" font-family="Times,serif" font-size="14.00">led_soc</text>
<polyline fill="none" stroke="black" points="1062.77,-189 1130.77,-189 "/>
<text text-anchor="middle" x="1096.77" y="-167.8" font-family="Times,serif" font-size="14.00">uart_tx</text>
</g>
<!-- n2&#45;&gt;c25 -->
<g id="edge4" class="edge">
<title>n2:e&#45;&gt;c25:w</title>
<path fill="none" stroke="black" d="M70.35,-235.5C215.37,-235.5 251.62,-235.5 396.64,-235.5 396.64,-235.5 396.64,-235.5 632.43,-235.5 740.06,-235.5 766.64,-225.88 873.77,-215.5 885.79,-214.33 890.98,-212.66 899.61,-211.9"/>
<polygon fill="black" stroke="black" points="899.92,-215.39 909.77,-211.5 899.64,-208.4 899.92,-215.39"/>
</g>
<!-- n3 -->
<g id="node2" class="node">
<title>n3</title>
<polygon fill="none" stroke="black" points="2479.84,-242.04 2479.84,-256.95 2464.03,-267.5 2441.66,-267.5 2425.84,-256.95 2425.84,-242.04 2441.66,-231.5 2464.03,-231.5 2479.84,-242.04"/>
<text text-anchor="middle" x="2452.84" y="-245.8" font-family="Times,serif" font-size="14.00">led</text>
</g>
<!-- n4 -->
<g id="node3" class="node">
<title>n4</title>
<polygon fill="none" stroke="black" points="2179.31,-267.5 2105.74,-249.5 2179.31,-231.5 2252.88,-249.5 2179.31,-267.5"/>
<text text-anchor="middle" x="2179.31" y="-245.8" font-family="Times,serif" font-size="14.00">led_blink</text>
</g>
<!-- c19 -->
<g id="node12" class="node">
<title>c19</title>
<polygon fill="none" stroke="black" points="2288.84,-230.5 2288.84,-268.5 2389.84,-268.5 2389.84,-230.5 2288.84,-230.5"/>
<text text-anchor="middle" x="2301.84" y="-245.8" font-family="Times,serif" font-size="14.00">A</text>
<polyline fill="none" stroke="black" points="2314.84,-230.5 2314.84,-268.5 "/>
<text text-anchor="middle" x="2339.34" y="-253.3" font-family="Times,serif" font-size="14.00">$5</text>
<text text-anchor="middle" x="2339.34" y="-238.3" font-family="Times,serif" font-size="14.00">$not</text>
<polyline fill="none" stroke="black" points="2363.84,-230.5 2363.84,-268.5 "/>
<text text-anchor="middle" x="2376.84" y="-245.8" font-family="Times,serif" font-size="14.00">Y</text>
</g>
<!-- n4&#45;&gt;c19 -->
<g id="edge7" class="edge">
<title>n4:e&#45;&gt;c19:w</title>
<path fill="none" stroke="black" stroke-width="3" d="M2252.84,-249.5C2264.84,-249.5 2270.09,-249.5 2278.72,-249.5"/>
<polygon fill="black" stroke="black" stroke-width="3" points="2278.84,-253 2288.84,-249.5 2278.84,-246 2278.84,-253"/>
</g>
<!-- n5 -->
<g id="node4" class="node">
<title>n5</title>
<polygon fill="none" stroke="black" points="1229.27,-244.5 1166.77,-226.5 1229.27,-208.5 1291.78,-226.5 1229.27,-244.5"/>
<text text-anchor="middle" x="1229.27" y="-222.8" font-family="Times,serif" font-size="14.00">led_soc</text>
</g>
<!-- n5&#45;&gt;c24 -->
<g id="edge9" class="edge">
<title>n5:e&#45;&gt;c24:w</title>
<path fill="none" stroke="black" stroke-width="3" d="M1291.78,-226.5C1304.46,-226.5 1308.98,-232.81 1317.72,-235.87"/>
<polygon fill="black" stroke="black" stroke-width="3" points="1317.35,-239.36 1327.78,-237.5 1318.46,-232.45 1317.35,-239.36"/>
</g>
<!-- n6 -->
<g id="node5" class="node">
<title>n6</title>
<polygon fill="none" stroke="black" points="397.64,-206.5 321.56,-188.5 397.64,-170.5 473.72,-188.5 397.64,-206.5"/>
<text text-anchor="middle" x="397.64" y="-184.8" font-family="Times,serif" font-size="14.00">reset_cnt</text>
</g>
<!-- c13 -->
<g id="node10" class="node">
<title>c13</title>
<polygon fill="none" stroke="black" points="578.93,-103.5 578.93,-149.5 683.93,-149.5 683.93,-103.5 578.93,-103.5"/>
<text text-anchor="middle" x="592.43" y="-134.3" font-family="Times,serif" font-size="14.00">A</text>
<polyline fill="none" stroke="black" points="578.93,-126.5 605.93,-126.5 "/>
<text text-anchor="middle" x="592.43" y="-111.3" font-family="Times,serif" font-size="14.00">B</text>
<polyline fill="none" stroke="black" points="605.93,-103.5 605.93,-149.5 "/>
<text text-anchor="middle" x="631.93" y="-130.3" font-family="Times,serif" font-size="14.00">$4</text>
<text text-anchor="middle" x="631.93" y="-115.3" font-family="Times,serif" font-size="14.00">$add</text>
<polyline fill="none" stroke="black" points="657.93,-103.5 657.93,-149.5 "/>
<text text-anchor="middle" x="670.93" y="-122.8" font-family="Times,serif" font-size="14.00">Y</text>
</g>
<!-- n6&#45;&gt;c13 -->
<g id="edge11" class="edge">
<title>n6:e&#45;&gt;c13:w</title>
<path fill="none" stroke="black" stroke-width="3" d="M474.64,-188.5C521.87,-188.5 526.21,-145.28 567.41,-139.2"/>
<polygon fill="black" stroke="black" stroke-width="3" points="567.7,-142.69 577.43,-138.5 567.21,-135.71 567.7,-142.69"/>
</g>
<!-- c20 -->
<g id="node13" class="node">
<title>c20</title>
<polygon fill="none" stroke="black" points="551.93,-168.5 551.93,-206.5 710.93,-206.5 710.93,-168.5 551.93,-168.5"/>
<text text-anchor="middle" x="564.93" y="-183.8" font-family="Times,serif" font-size="14.00">A</text>
<polyline fill="none" stroke="black" points="577.93,-168.5 577.93,-206.5 "/>
<text text-anchor="middle" x="631.43" y="-191.3" font-family="Times,serif" font-size="14.00">$1</text>
<text text-anchor="middle" x="631.43" y="-176.3" font-family="Times,serif" font-size="14.00">$reduce_and</text>
<polyline fill="none" stroke="black" points="684.93,-168.5 684.93,-206.5 "/>
<text text-anchor="middle" x="697.93" y="-183.8" font-family="Times,serif" font-size="14.00">Y</text>
</g>
<!-- n6&#45;&gt;c20 -->
<g id="edge12" class="edge">
<title>n6:e&#45;&gt;c20:w</title>
<path fill="none" stroke="black" stroke-width="3" d="M474.64,-188.5C505.37,-188.5 515.48,-187.7 541.86,-187.53"/>
<polygon fill="black" stroke="black" stroke-width="3" points="541.94,-191.03 551.93,-187.5 541.92,-184.03 541.94,-191.03"/>
</g>
<!-- n7 -->
<g id="node6" class="node">
<title>n7</title>
<polygon fill="none" stroke="black" points="810.35,-206.5 747.01,-188.5 810.35,-170.5 873.69,-188.5 810.35,-206.5"/>
<text text-anchor="middle" x="810.35" y="-184.8" font-family="Times,serif" font-size="14.00">reset_n</text>
</g>
<!-- n7&#45;&gt;c18 -->
<g id="edge14" class="edge">
<title>n7:e&#45;&gt;c18:w</title>
<path fill="none" stroke="black" d="M874.35,-188.5C882.36,-188.5 879.17,-200.99 873.35,-206.5 852.94,-225.8 769.61,-223.07 746.93,-206.5 704.37,-175.39 751.5,-127.15 710.93,-93.5 563.06,29.15 469.28,-40.62 279.35,-69.5 199.51,-81.63 156.39,-60.5 105.85,-123.5 105.43,-124.02 105.02,-124.6 104.63,-125.21"/>
<polygon fill="black" stroke="black" points="101.13,-125.57 104.85,-135.5 108.13,-125.42 101.13,-125.57"/>
</g>
<!-- n7&#45;&gt;c25 -->
<g id="edge15" class="edge">
<title>n7:e&#45;&gt;c25:w</title>
<path fill="none" stroke="black" d="M873.77,-188.5C885.77,-188.5 891.02,-188.5 899.65,-188.5"/>
<polygon fill="black" stroke="black" points="899.77,-192 909.77,-188.5 899.77,-185 899.77,-192"/>
</g>
<!-- n8 -->
<g id="node7" class="node">
<title>n8</title>
<polygon fill="none" stroke="black" points="858.03,-127.04 858.03,-141.95 830.1,-152.5 790.6,-152.5 762.67,-141.95 762.67,-127.04 790.6,-116.5 830.1,-116.5 858.03,-127.04"/>
<text text-anchor="middle" x="810.35" y="-130.8" font-family="Times,serif" font-size="14.00">uart_rx</text>
</g>
<!-- n8&#45;&gt;c25 -->
<g id="edge16" class="edge">
<title>n8:e&#45;&gt;c25:w</title>
<path fill="none" stroke="black" d="M859.35,-134.5C881.75,-134.5 883.49,-156.98 899.75,-163.65"/>
<polygon fill="black" stroke="black" points="899.3,-167.12 909.77,-165.5 900.57,-160.24 899.3,-167.12"/>
</g>
<!-- n9 -->
<g id="node8" class="node">
<title>n9</title>
<polygon fill="none" stroke="black" points="1276.95,-164.04 1276.95,-178.95 1249.02,-189.5 1209.53,-189.5 1181.6,-178.95 1181.6,-164.04 1209.53,-153.5 1249.02,-153.5 1276.95,-164.04"/>
<text text-anchor="middle" x="1229.27" y="-167.8" font-family="Times,serif" font-size="14.00">uart_tx</text>
</g>
<!-- v0 -->
<g id="node9" class="node">
<title>v0</title>
<ellipse fill="none" stroke="black" cx="397.64" cy="-96.5" rx="118.08" ry="18"/>
<text text-anchor="middle" x="397.64" y="-92.8" font-family="Times,serif" font-size="14.00">16&#39;0000000000000001</text>
</g>
<!-- v0&#45;&gt;c13 -->
<g id="edge18" class="edge">
<title>v0:e&#45;&gt;c13:w</title>
<path fill="none" stroke="black" stroke-width="3" d="M515.93,-96.5C540.63,-96.5 547.32,-110.03 567.24,-113.63"/>
<polygon fill="black" stroke="black" stroke-width="3" points="567.17,-117.13 577.43,-114.5 567.76,-110.16 567.17,-117.13"/>
</g>
<!-- c13&#45;&gt;c18 -->
<g id="edge1" class="edge">
<title>c13:e&#45;&gt;c18:w</title>
<path fill="none" stroke="black" stroke-width="3" d="M685.43,-126.5C695.88,-126.5 691.87,-142.66 684.43,-150 668.4,-165.8 300.28,-153.2 279.35,-161.5 259.45,-169.39 263.36,-185.89 243.35,-193.5 186.23,-215.21 149.67,-236.09 105.85,-193.5 97.92,-185.78 92.89,-171.35 96.24,-163.65"/>
<polygon fill="black" stroke="black" stroke-width="3" points="98.07,-166.63 104.85,-158.5 94.47,-160.63 98.07,-166.63"/>
</g>
<!-- c18&#45;&gt;n6 -->
<g id="edge10" class="edge">
<title>c18:e&#45;&gt;n6:w</title>
<path fill="none" stroke="black" stroke-width="3" d="M243.35,-158.5C276.45,-158.5 282.72,-182.71 310.37,-187.63"/>
<polygon fill="black" stroke="black" stroke-width="3" points="310.38,-191.14 320.64,-188.5 310.97,-184.17 310.38,-191.14"/>
</g>
<!-- c19&#45;&gt;n3 -->
<g id="edge5" class="edge">
<title>c19:e&#45;&gt;n3:w</title>
<path fill="none" stroke="black" stroke-width="3" d="M2389.84,-249.5C2401.84,-249.5 2407.09,-249.5 2415.72,-249.5"/>
<polygon fill="black" stroke="black" stroke-width="3" points="2415.84,-253 2425.84,-249.5 2415.84,-246 2415.84,-253"/>
</g>
<!-- c20&#45;&gt;n7 -->
<g id="edge13" class="edge">
<title>c20:e&#45;&gt;n7:w</title>
<path fill="none" stroke="black" d="M710.93,-187.5C722.93,-187.5 728.18,-188.06 736.8,-188.34"/>
<polygon fill="black" stroke="black" points="736.88,-191.84 746.93,-188.5 736.98,-184.84 736.88,-191.84"/>
</g>
<!-- c24&#45;&gt;n4 -->
<g id="edge6" class="edge">
<title>c24:e&#45;&gt;n4:w</title>
<path fill="none" stroke="black" stroke-width="3" d="M2069.78,-249.5C2081.78,-249.5 2087.03,-249.5 2095.65,-249.5"/>
<polygon fill="black" stroke="black" stroke-width="3" points="2095.78,-253 2105.78,-249.5 2095.78,-246 2095.78,-253"/>
</g>
<!-- c25&#45;&gt;n5 -->
<g id="edge8" class="edge">
<title>c25:e&#45;&gt;n5:w</title>
<path fill="none" stroke="black" stroke-width="3" d="M1130.77,-206.5C1144.93,-206.5 1147.77,-218.46 1156.8,-223.88"/>
<polygon fill="black" stroke="black" stroke-width="3" points="1156.21,-227.34 1166.77,-226.5 1157.99,-220.57 1156.21,-227.34"/>
</g>
<!-- c25&#45;&gt;n9 -->
<g id="edge17" class="edge">
<title>c25:e&#45;&gt;n9:w</title>
<path fill="none" stroke="black" d="M1130.77,-171.5C1148.99,-171.5 1155.9,-171.5 1170.23,-171.5"/>
<polygon fill="black" stroke="black" points="1170.27,-175 1180.27,-171.5 1170.27,-168 1170.27,-175"/>
</g>
</g>
</svg>
